<?xml version="1.0" encoding="utf-8"?>
<!-- Generator: Adobe Illustrator 19.1.0, SVG Export Plug-In . SVG Version: 6.00 Build 0)  -->
<svg version="1.1" id="Layer_1" xmlns="http://www.w3.org/2000/svg" xmlns:xlink="http://www.w3.org/1999/xlink" x="0px" y="0px"
	 viewBox="0 0 64 64" enable-background="new 0 0 64 64" xml:space="preserve">
<g id="Pause">
	<path d="M32,0C14.3268995,0,0,14.3268995,0,32s14.3268995,32,32,32s32-14.3269005,32-32S49.6730995,0,32,0z M32,62
		C15.4580002,62,2,48.542099,2,32C2,15.4580002,15.4580002,2,32,2c16.542099,0,30,13.4580002,30,30C62,48.542099,48.542099,62,32,62
		z"/>
	<path d="M40,18h-4c-1.1044998,0-2,0.8953991-2,2v24c0,1.104599,0.8955002,2,2,2h4c1.104599,0,2-0.895401,2-2V20
		C42,18.8953991,41.104599,18,40,18z M40,44h-4V20h4V44z"/>
	<path d="M28,18h-4c-1.1044998,0-2,0.8953991-2,2v24c0,1.104599,0.8955002,2,2,2h4c1.1046009,0,2-0.895401,2-2V20
		C30,18.8953991,29.1046009,18,28,18z M28,44h-4V20h4V44z"/>
</g>
<g>
</g>
<g>
</g>
<g>
</g>
<g>
</g>
<g>
</g>
<g>
</g>
<g>
</g>
<g>
</g>
<g>
</g>
<g>
</g>
<g>
</g>
<g>
</g>
<g>
</g>
<g>
</g>
<g>
</g>
</svg>
