<?xml version="1.0" encoding="utf-8"?>
<!-- Generator: Adobe Illustrator 19.1.0, SVG Export Plug-In . SVG Version: 6.00 Build 0)  -->
<svg version="1.1" id="Layer_1" xmlns="http://www.w3.org/2000/svg" xmlns:xlink="http://www.w3.org/1999/xlink" x="0px" y="0px"
	 viewBox="0 0 64 64" enable-background="new 0 0 64 64" xml:space="preserve">
<g id="Stop">
	<path d="M39.3726997,20.9561005h-13.912199c-2.2541008,0-4.087801,1.8337994-4.087801,4.0879002v13.9120998
		c0,2.2539978,1.8337002,4.0878983,4.087801,4.0878983h13.912199c2.2540016,0,4.0877991-1.8339005,4.0877991-4.0878983V25.0440006
		C43.4604988,22.7898998,41.6267014,20.9561005,39.3726997,20.9561005z M41.4165001,38.9561005
		C41.4165001,40.0848999,40.5014,41,39.3726997,41h-13.912199c-1.1289005,0-2.0440006-0.9151001-2.0440006-2.0438995V25.0440006
		C23.4165001,23.9151001,24.3316002,23,25.4605007,23h13.912199c1.1287003,0,2.0438004,0.9151001,2.0438004,2.0440006V38.9561005z"
		/>
	<path d="M32,0C14.3268995,0,0,14.3268995,0,32s14.3268995,32,32,32s32-14.3269005,32-32S49.6730995,0,32,0z M32,62
		C15.4580002,62,2,48.542099,2,32C2,15.4580002,15.4580002,2,32,2c16.542099,0,30,13.4580002,30,30C62,48.542099,48.542099,62,32,62
		z"/>
</g>
<g>
</g>
<g>
</g>
<g>
</g>
<g>
</g>
<g>
</g>
<g>
</g>
<g>
</g>
<g>
</g>
<g>
</g>
<g>
</g>
<g>
</g>
<g>
</g>
<g>
</g>
<g>
</g>
<g>
</g>
</svg>
